<?xml version="1.0" encoding="utf-8"?>
<!-- Generator: Adobe Illustrator 17.1.0, SVG Export Plug-In . SVG Version: 6.00 Build 0)  -->
<!DOCTYPE svg PUBLIC "-//W3C//DTD SVG 1.1//EN" "http://www.w3.org/Graphics/SVG/1.1/DTD/svg11.dtd">
<svg version="1.1" id="Layer_1" xmlns="http://www.w3.org/2000/svg" xmlns:xlink="http://www.w3.org/1999/xlink" x="0px" y="0px"
	 viewBox="51 141 510 510" enable-background="new 51 141 510 510" xml:space="preserve">
<g id="post-blogger">
	<path fill="#F57D00" d="M510,141H102c-28,0-51,22.9-51,51v408c0,28,23,51,51,51h408c28,0,51-23,51-51V192
		C561,163.9,538,141,510,141z M408,319.5V345c0,15.3,10.2,25.5,25.5,25.5S459,380.7,459,396v76.5c0,43.4-33.1,76.5-76.5,76.5h-153
		c-43.3,0-76.5-33.1-76.5-76.5V294c0-43.3,33.2-76.5,76.5-76.5h102c43.4,0,76.5,33.2,76.5,76.5V319.5z M255,345h66.3
		c15.3,0,25.5-10.2,25.5-25.5S336.6,294,321.3,294H255c-15.3,0-25.5,10.2-25.5,25.5S239.7,345,255,345z M357,421.5H255
		c-15.3,0-25.5,10.2-25.5,25.5s10.2,25.5,25.5,25.5h102c15.3,0,25.5-10.2,25.5-25.5S372.3,421.5,357,421.5z"/>
</g>
</svg>
