<?xml version="1.0" encoding="utf-8"?>
<!-- Generator: Adobe Illustrator 17.1.0, SVG Export Plug-In . SVG Version: 6.00 Build 0)  -->
<!DOCTYPE svg PUBLIC "-//W3C//DTD SVG 1.1//EN" "http://www.w3.org/Graphics/SVG/1.1/DTD/svg11.dtd">
<svg version="1.1" id="Layer_1" xmlns="http://www.w3.org/2000/svg" xmlns:xlink="http://www.w3.org/1999/xlink" x="0px" y="0px"
	 viewBox="7.3 7.8 35.3 34.4" enable-background="new 7.3 7.8 35.3 34.4" xml:space="preserve">
<path d="M31.1,42c-0.2,0.1-0.3,0.1-0.5,0.2c-0.7,0.1-1.1-0.2-1.1-0.9c0-1.3,0-2.6,0-3.9c0-1.5,0-2.9-1.1-4.2
	c0.7-0.1,1.3-0.2,1.8-0.3c3.9-0.9,5.9-3.3,6.1-7.4c0.1-2.1-0.2-3.9-1.6-5.6c-0.1-0.1-0.1-0.4-0.1-0.5c0.4-1.3,0.3-2.6-0.2-4
	c-0.1-0.3-0.3-0.4-0.6-0.4c-1.1,0.1-2.2,0.5-3.1,1.1c-0.9,0.6-1.7,0.7-2.8,0.5c-2.3-0.5-4.6-0.4-6.9,0.2c-0.3,0.1-0.6,0-0.9-0.2
	c-1.1-0.6-2.2-1.3-3.4-1.5c-1-0.2-1-0.1-1.3,0.8c-0.3,1.2-0.4,2.4,0,3.5c0,0.2,0,0.4-0.1,0.6c-2.6,2.9-1.6,8.2,0.1,10.3
	c1.3,1.6,3.1,2.3,5.1,2.7c0.3,0.1,0.7,0.1,1,0.2c-0.3,0.8-0.6,1.5-0.9,2.2c-0.1,0.1-0.2,0.3-0.4,0.3c-1.9,0.8-3.6,0.2-4.7-1.6
	c-0.6-0.9-1.4-1.6-2.5-1.8c0,0-0.1,0-0.1,0c-0.3,0.1-0.6,0.2-0.9,0.2c0.2,0.2,0.3,0.6,0.5,0.7c1,0.6,1.6,1.5,2,2.5
	c0.6,1.6,1.9,2.3,3.5,2.5c0.8,0.1,1.6,0,2.5,0c0,1,0,2.1,0,3.3c0,0.6-0.6,0.9-1.4,0.6c-1.9-0.7-3.8-1.6-5.3-3
	C8.3,34.3,6.1,28.2,8,21c1.9-7.2,6.7-11.5,14-12.9C32,6.2,41.6,13.5,42.6,23.7C43.4,31.8,38.6,39.3,31.1,42z M21.6,33.2
	C21.6,33.2,21.6,33.2,21.6,33.2C21.6,33.2,21.6,33.2,21.6,33.2C21.6,33.2,21.6,33.3,21.6,33.2z M17,36.4c0.2,0.1,0.3,0.2,0.5,0.3
	c0.1,0,0.2-0.1,0.4-0.3c-0.3-0.1-0.4-0.2-0.6-0.2C17.2,36.1,17.1,36.3,17,36.4z M18.5,36.6c0,0.1,0.2,0.2,0.4,0.2
	c0.1,0,0.2-0.2,0.4-0.3c-0.1-0.1-0.2-0.2-0.5-0.5C18.5,36.3,18.4,36.5,18.5,36.6z M20.2,36.2c-0.1,0-0.3,0.2-0.4,0.3
	c0.1,0.1,0.2,0.2,0.3,0.3c0.2-0.2,0.3-0.3,0.4-0.4C20.4,36.3,20.3,36.2,20.2,36.2z M15.9,35.6c0.1,0.2,0.2,0.3,0.4,0.5
	c0.1-0.2,0.2-0.3,0.2-0.4c-0.1-0.1-0.3-0.3-0.4-0.4C16,35.4,15.8,35.6,15.9,35.6z"/>
</svg>
